<mxfile modified="2023-10-04T07:05:22.619Z" host="app.diagrams.net" agent="Mozilla/5.0 (Windows NT 10.0; Win64; x64) AppleWebKit/537.36 (KHTML, like Gecko) Chrome/117.0.0.0 Safari/537.36" etag="zgRIP41C1HvlDdPl5XN2" version="21.6.5" type="device">
  <diagram id="Ht1M8jgEwFfnCIfOTk4-" name="Page-1">
    <mxGraphModel dx="1917" dy="1050" grid="0" gridSize="10" guides="1" tooltips="1" connect="1" arrows="1" fold="1" page="1" pageScale="1" pageWidth="1169" pageHeight="827" math="0" shadow="0">
      <root>
        <mxCell id="0" />
        <mxCell id="1" parent="0" />
        <mxCell id="nSJ_F9aP9lYN7gOiTDdO-2" value="" style="rounded=1;arcSize=10;dashed=0;fillColor=none;gradientColor=none;strokeWidth=2;" vertex="1" parent="1">
          <mxGeometry x="771" y="56" width="338" height="304" as="geometry" />
        </mxCell>
        <mxCell id="0cvhrp5IMuWOUAZ_2wwR-5" value="Default VPC (us-east-1)" style="sketch=0;outlineConnect=0;gradientColor=none;html=1;whiteSpace=wrap;fontSize=12;fontStyle=0;shape=mxgraph.aws4.group;grIcon=mxgraph.aws4.group_vpc;strokeColor=#879196;fillColor=none;verticalAlign=top;align=left;spacingLeft=30;fontColor=#879196;dashed=0;" parent="1" vertex="1">
          <mxGeometry x="922" y="82" width="164" height="267" as="geometry" />
        </mxCell>
        <mxCell id="0cvhrp5IMuWOUAZ_2wwR-6" value="You" style="points=[[0.13,0.02,0],[0.5,0,0],[0.87,0.02,0],[0.885,0.4,0],[0.985,0.985,0],[0.5,1,0],[0.015,0.985,0],[0.115,0.4,0]];verticalLabelPosition=bottom;sketch=0;html=1;verticalAlign=top;aspect=fixed;align=center;pointerEvents=1;shape=mxgraph.cisco19.laptop;fillColor=#005073;strokeColor=none;" parent="1" vertex="1">
          <mxGeometry x="599" y="188.5" width="50" height="35" as="geometry" />
        </mxCell>
        <mxCell id="nSJ_F9aP9lYN7gOiTDdO-1" value="CloudShell" style="sketch=0;points=[[0,0,0],[0.25,0,0],[0.5,0,0],[0.75,0,0],[1,0,0],[0,1,0],[0.25,1,0],[0.5,1,0],[0.75,1,0],[1,1,0],[0,0.25,0],[0,0.5,0],[0,0.75,0],[1,0.25,0],[1,0.5,0],[1,0.75,0]];outlineConnect=0;fontColor=#232F3E;gradientColor=#4D72F3;gradientDirection=north;fillColor=#3334B9;strokeColor=#ffffff;dashed=0;verticalLabelPosition=bottom;verticalAlign=top;align=center;html=1;fontSize=12;fontStyle=0;aspect=fixed;shape=mxgraph.aws4.resourceIcon;resIcon=mxgraph.aws4.cloudshell;" vertex="1" parent="1">
          <mxGeometry x="805" y="181.5" width="49" height="49" as="geometry" />
        </mxCell>
        <mxCell id="nSJ_F9aP9lYN7gOiTDdO-3" value="" style="dashed=0;html=1;shape=mxgraph.aws3.cloud;fillColor=#F58536;gradientColor=none;dashed=0;" vertex="1" parent="1">
          <mxGeometry x="802" y="36" width="52" height="36" as="geometry" />
        </mxCell>
        <mxCell id="0cvhrp5IMuWOUAZ_2wwR-1" value="node01" style="sketch=0;outlineConnect=0;fontColor=#232F3E;gradientColor=none;fillColor=#D45B07;strokeColor=none;dashed=0;verticalLabelPosition=bottom;verticalAlign=top;align=center;html=1;fontSize=12;fontStyle=0;aspect=fixed;pointerEvents=1;shape=mxgraph.aws4.t3_instance;" parent="1" vertex="1">
          <mxGeometry x="980" y="110" width="48" height="48" as="geometry" />
        </mxCell>
        <mxCell id="0cvhrp5IMuWOUAZ_2wwR-2" value="controlplane" style="sketch=0;outlineConnect=0;fontColor=#232F3E;gradientColor=none;fillColor=#D45B07;strokeColor=none;dashed=0;verticalLabelPosition=bottom;verticalAlign=top;align=center;html=1;fontSize=12;fontStyle=0;aspect=fixed;pointerEvents=1;shape=mxgraph.aws4.t3_instance;" parent="1" vertex="1">
          <mxGeometry x="980" y="182" width="48" height="48" as="geometry" />
        </mxCell>
        <mxCell id="0cvhrp5IMuWOUAZ_2wwR-3" value="node02" style="sketch=0;outlineConnect=0;fontColor=#232F3E;gradientColor=none;fillColor=#D45B07;strokeColor=none;dashed=0;verticalLabelPosition=bottom;verticalAlign=top;align=center;html=1;fontSize=12;fontStyle=0;aspect=fixed;pointerEvents=1;shape=mxgraph.aws4.t3_instance;" parent="1" vertex="1">
          <mxGeometry x="980" y="258" width="48" height="48" as="geometry" />
        </mxCell>
        <mxCell id="nSJ_F9aP9lYN7gOiTDdO-11" value="" style="endArrow=classic;html=1;rounded=0;" edge="1" parent="1" target="0cvhrp5IMuWOUAZ_2wwR-2">
          <mxGeometry relative="1" as="geometry">
            <mxPoint x="854" y="205.70999999999998" as="sourcePoint" />
            <mxPoint x="954" y="205.70999999999998" as="targetPoint" />
          </mxGeometry>
        </mxCell>
        <mxCell id="nSJ_F9aP9lYN7gOiTDdO-12" value="SSH" style="edgeLabel;resizable=0;html=1;align=center;verticalAlign=middle;" connectable="0" vertex="1" parent="nSJ_F9aP9lYN7gOiTDdO-11">
          <mxGeometry relative="1" as="geometry">
            <mxPoint x="-1" as="offset" />
          </mxGeometry>
        </mxCell>
        <mxCell id="nSJ_F9aP9lYN7gOiTDdO-13" value="" style="endArrow=classic;html=1;rounded=0;exitX=0.5;exitY=0;exitDx=0;exitDy=0;exitPerimeter=0;" edge="1" parent="1" source="nSJ_F9aP9lYN7gOiTDdO-1" target="0cvhrp5IMuWOUAZ_2wwR-1">
          <mxGeometry relative="1" as="geometry">
            <mxPoint x="810" y="137" as="sourcePoint" />
            <mxPoint x="910" y="137" as="targetPoint" />
            <Array as="points">
              <mxPoint x="830" y="134" />
            </Array>
          </mxGeometry>
        </mxCell>
        <mxCell id="nSJ_F9aP9lYN7gOiTDdO-14" value="SSH/NodePorts" style="edgeLabel;resizable=0;html=1;align=center;verticalAlign=middle;" connectable="0" vertex="1" parent="nSJ_F9aP9lYN7gOiTDdO-13">
          <mxGeometry relative="1" as="geometry">
            <mxPoint x="-1" as="offset" />
          </mxGeometry>
        </mxCell>
        <mxCell id="nSJ_F9aP9lYN7gOiTDdO-15" value="" style="endArrow=classic;html=1;rounded=0;" edge="1" parent="1" source="nSJ_F9aP9lYN7gOiTDdO-1" target="0cvhrp5IMuWOUAZ_2wwR-3">
          <mxGeometry relative="1" as="geometry">
            <mxPoint x="784" y="369" as="sourcePoint" />
            <mxPoint x="938" y="203" as="targetPoint" />
            <Array as="points">
              <mxPoint x="829" y="282" />
            </Array>
          </mxGeometry>
        </mxCell>
        <mxCell id="nSJ_F9aP9lYN7gOiTDdO-16" value="SSH/NodePorts" style="edgeLabel;resizable=0;html=1;align=center;verticalAlign=middle;" connectable="0" vertex="1" parent="nSJ_F9aP9lYN7gOiTDdO-15">
          <mxGeometry relative="1" as="geometry">
            <mxPoint x="-1" as="offset" />
          </mxGeometry>
        </mxCell>
        <mxCell id="nSJ_F9aP9lYN7gOiTDdO-17" value="" style="endArrow=classic;html=1;rounded=0;" edge="1" parent="1" source="0cvhrp5IMuWOUAZ_2wwR-6" target="nSJ_F9aP9lYN7gOiTDdO-1">
          <mxGeometry relative="1" as="geometry">
            <mxPoint x="610" y="205.70999999999998" as="sourcePoint" />
            <mxPoint x="710" y="205.70999999999998" as="targetPoint" />
          </mxGeometry>
        </mxCell>
        <mxCell id="nSJ_F9aP9lYN7gOiTDdO-18" value="AWS Console" style="edgeLabel;resizable=0;html=1;align=center;verticalAlign=middle;" connectable="0" vertex="1" parent="nSJ_F9aP9lYN7gOiTDdO-17">
          <mxGeometry relative="1" as="geometry" />
        </mxCell>
        <mxCell id="nSJ_F9aP9lYN7gOiTDdO-19" value="" style="endArrow=classic;html=1;rounded=0;exitX=0.434;exitY=0.01;exitDx=0;exitDy=0;exitPerimeter=0;" edge="1" parent="1" source="0cvhrp5IMuWOUAZ_2wwR-6" target="0cvhrp5IMuWOUAZ_2wwR-1">
          <mxGeometry relative="1" as="geometry">
            <mxPoint x="620.9999999999998" y="124.73000000000002" as="sourcePoint" />
            <mxPoint x="1005.45" y="47" as="targetPoint" />
            <Array as="points">
              <mxPoint x="621.45" y="28" />
              <mxPoint x="1005.45" y="26" />
            </Array>
          </mxGeometry>
        </mxCell>
        <mxCell id="nSJ_F9aP9lYN7gOiTDdO-20" value="NodePorts" style="edgeLabel;resizable=0;html=1;align=center;verticalAlign=middle;" connectable="0" vertex="1" parent="nSJ_F9aP9lYN7gOiTDdO-19">
          <mxGeometry relative="1" as="geometry" />
        </mxCell>
        <mxCell id="nSJ_F9aP9lYN7gOiTDdO-21" value="" style="endArrow=classic;html=1;rounded=0;exitX=0.423;exitY=0.941;exitDx=0;exitDy=0;exitPerimeter=0;" edge="1" parent="1" source="0cvhrp5IMuWOUAZ_2wwR-6" target="0cvhrp5IMuWOUAZ_2wwR-3">
          <mxGeometry relative="1" as="geometry">
            <mxPoint x="620" y="487" as="sourcePoint" />
            <mxPoint x="1004" y="409" as="targetPoint" />
            <Array as="points">
              <mxPoint x="620" y="390" />
              <mxPoint x="1004" y="388" />
            </Array>
          </mxGeometry>
        </mxCell>
        <mxCell id="nSJ_F9aP9lYN7gOiTDdO-22" value="NodePorts" style="edgeLabel;resizable=0;html=1;align=center;verticalAlign=middle;" connectable="0" vertex="1" parent="nSJ_F9aP9lYN7gOiTDdO-21">
          <mxGeometry relative="1" as="geometry" />
        </mxCell>
      </root>
    </mxGraphModel>
  </diagram>
</mxfile>
